<svg height="496pt" viewBox="0 0 496 496" width="496pt" xmlns="http://www.w3.org/2000/svg"><path d="m488 72v280h-192l-.847656-1.6875c-4.382813-8.769531-13.34375-14.3125-23.152344-14.3125h-37.425781c-12.300781 0-24.46875-2.503906-35.773438-7.359375l-21.601562-9.28125c-8.078125-3.4375-16.558594-5.679687-25.199219-6.71875v-240.640625zm0 0" fill="#dfb28b"/><path d="m272 8v64h-120v-64zm0 0" fill="#cf9e76"/><path d="m368 8h120v64h-120zm0 0" fill="#cf9e76"/><path d="m272 8v128h8l20-16 20 16 20-16 20 16h8v-128zm0 0" fill="#fcd770"/><path d="m368 280v72h-73.441406c-3.199219-9.359375-12.078125-16-22.558594-16v-56h8l20 16 20-16 20 16 20-16zm0 0" fill="#fcd770"/><path d="m56 472v16h-48v-160h48zm0 0" fill="#d3a06c"/><path d="m294.640625 352h110.800781c-1.363281 3.039062-3.28125 5.839844-5.761718 8.320312l-48.238282 48.238282c-15.042968 15.042968-35.363281 23.441406-56.5625 23.441406h-157.277344c-16.640624 0-32.882812 5.199219-46.480468 14.878906l-35.121094 25.121094v-120l32.160156-22.960938c15.519532-11.117187 34.078125-17.039062 53.121094-17.039062 3.597656 0 7.199219.238281 10.71875.640625 8.640625 1.039063 17.121094 3.28125 25.199219 6.71875l21.601562 9.28125c11.359375 4.878906 23.597657 7.359375 35.917969 7.359375h37.28125c10.480469 0 19.359375 6.640625 22.558594 16zm0 0" fill="#f0d0b4"/><path d="m344 184h112v64h-112zm0 0" fill="#ff826e"/><path d="m496 0h-352v304.136719c-.921875-.023438-1.824219-.136719-2.742188-.136719-20.824218 0-40.785156 6.398438-57.722656 18.496094l-19.535156 13.960937v-16.457031h-64v176h64v-19.886719l31.792969-22.707031c12.277343-8.773438 26.742187-13.40625 41.847656-13.40625h157.214844c23.503906 0 45.609375-9.160156 62.222656-25.777344l48.289063-48.285156c1.808593-1.800781 3.335937-3.816406 4.710937-5.9375h85.921875zm-16 64h-104v-48h104zm-200 16h80v45.753906l-19.976562-16-19.992188 16.007813-20.015625-16-20.015625 16zm0-16v-48h80v48zm-16-48v48h-104v-48zm-216 464h-32v-144h32zm297.777344-77.089844c-13.601563 13.59375-31.679688 21.089844-50.914063 21.089844h-157.222656c-18.457031 0-36.144531 5.664062-51.152344 16.390625l-22.488281 16.066406v-100.34375l28.832031-20.601562c23.449219-16.742188 54.785157-20.128907 81.238281-8.785157l21.539063 9.234376c12.4375 5.335937 25.597656 8.039062 39.132813 8.039062h37.257812c8.824219 0 16 7.175781 16 16s-7.175781 16-16 16h-136v16h136c17.648438 0 32-14.351562 32-32h84.6875zm14.222656-58.910156h-60.449219c-4.238281-7.273438-11.207031-12.695312-19.550781-14.863281v-38.890625l19.976562 16 19.992188-16.007813 20.015625 16 20.015625-16zm16 0v-72h-18.808594l-17.207031 13.761719-20.015625-16-19.992188 15.992187-17.160156-13.753906h-18.816406v56h-29.257812c-11.351563 0-22.398438-2.265625-32.820313-6.734375l-21.539063-9.234375c-6.597656-2.832031-13.421874-4.863281-20.382812-6.199219v-225.832031h104v64h18.808594l17.207031-13.761719 20.015625 16 19.992188-15.992187 17.160156 13.753906h18.816406v-64h104v264zm0 0"/><path d="m336 256h128v-80h-128zm16-64h96v48h-96zm0 0"/><path d="m368 208h64v16h-64zm0 0"/></svg>